<?xml version="1.0" encoding="UTF-8"?>
<svg id="Layer_1" data-name="Layer 1" xmlns="http://www.w3.org/2000/svg" width="300" height="300" viewBox="0 0 300 300">
  <circle cx="150" cy="150" r="150" fill="#fff"/>
  <g>
    <path d="M46.789,258.857c8.984-4.245,17.271-6.631,26.53-9.345,11.107-3.255,36.275-10.601,37.474-32.315,0-5.17,1.587-13.385.618-20.414-4.534-7.798-13.014-29.763-13.796-31.358-.712-1.283-4.679-1.48-6.95-5.266-2.049-3.415-2.652-6.416-3.322-8.132-4.737-12.151-4.637-20.613-4.451-27.698.272-10.361,6.863-8.338,9.359-8.089-.57-9.372-.186-19.377,1.514-28.775,0,0,9.087-47.706,56.793-47.706,47.706-.757,56.793,47.706,56.793,47.706,1.7,9.398,2.084,19.403,1.514,28.775,2.497-.248,9.087-2.272,9.359,8.089.186,7.085.287,15.547-4.451,27.698-.67,1.716-1.273,4.717-3.322,8.132-2.272,3.786-6.238,3.982-6.95,5.266-.783,1.595-9.262,23.56-13.796,31.358-.97,7.03.618,15.244.618,20.414,1.199,21.714,26.367,29.06,37.474,32.315,9.002,2.638,17.087,4.971,25.784,8.999,28.602-27.314,46.421-65.823,46.421-108.495C300,67.174,232.843.016,150,.016S0,67.174,0,150.016c0,42.853,17.973,81.507,46.789,108.841Z" fill="#00007e"/>
    <path d="M200.071,91.51c.614-.881.714-1.951.714-2.554,0-.905-.226-1.818-.647-2.661-.224-.551-.458-.935-.896-1.467l-.117-.114c-.105-.087-.316-.26-.471-.424.011-.017.02-.033.029-.05.143-.251.337-.594.337-1.009v-1.116c0-.789-.184-1.932-.664-2.711-.121-.244-.221-.472-.315-.684-.22-.497-.428-.966-.711-1.304-.204-.327-.478-.767-1.009-1.027-.137-.113-.244-.211-.356-.391-.086-.138-.086-.547-.086-.722,0-.507,0-.948-.251-1.412-.171-.552-.37-1.156-.837-1.684l.199-.744-.229-.291c-.243-.309-.507-.657-.602-.83l-.115-.292c-.226-.575-.458-1.17-.795-1.733-.238-.346-.521-.592-.771-.81-.151-.132-.302-.258-.441-.431-.1-.117-.171-.26-.254-.426-.171-.343-.407-.813-.956-1.158-.146-.105-.265-.182-.363-.246-.244-.159-.248-.162-.4-.444-.561-1.175-1.411-2.118-2.522-2.828-1.364-1.136-2.576-1.731-3.607-1.77l-.096-.026c-.57-.926-1.854-1.779-2.952-2.191-.639-.24-1.502-.451-2.309-.271-.796-.896-1.568-1.481-2.571-1.96-.645-.315-3.102-1.194-4.676-.507-.834-.588-1.837-1.001-3.077-1.276-1.566-.476-2.784-.602-3.634-.377-2.515-1.351-4.724-1.49-6.568-.417-4.548,2.645-4.832,11.529-4.832,11.617,0,.51-.227.965-.785,1.57l-.087.115c-.216.351-1.411.891-1.813.923h-.001c-.349,0-1.547-.557-1.777-.927l-.084-.111c-.555-.602-.782-1.058-.782-1.57,0-.088-.284-8.973-4.83-11.617-1.845-1.072-4.052-.932-6.567.417-.85-.226-2.065-.101-3.584.363-1.288.288-2.298.703-3.134,1.292-1.437-.622-3.687.025-4.668.503-1.187.568-1.957,1.264-2.577,1.962-.806-.179-1.669.031-2.305.27-1.099.412-2.385,1.264-2.954,2.192l-.096.026c-1.037.039-2.249.632-3.536,1.717-1.188.767-2.037,1.71-2.579,2.851-.168.312-.172.315-.415.475-.098.064-.216.141-.322.22-.587.368-.824.837-.996,1.18-.083.166-.155.309-.275.452-.12.152-.271.278-.422.409-.251.218-.536.465-.793.848-.296.495-.517,1.055-.73,1.597l-.122.317c-.144.272-.431.643-.635.897l-.234.294.204.748c-.47.534-.674,1.151-.836,1.679-.255.464-.255.906-.255,1.414,0,.176,0,.588-.083.724-.112.181-.219.279-.354.39-.533.26-.807.7-.963.963-.328.401-.534.865-.751,1.358-.096.216-.198.447-.288.635-.512.836-.695,1.979-.695,2.77v1.116c0,.414.193.757.335,1.007.009.017.02.034.029.05-.151.162-.355.331-.488.44l-.097.097c-.444.536-.681.921-.882,1.42-.439.891-.662,1.804-.662,2.71,0,.603.1,1.674.708,2.553-.608,2.236-.905,4.216-.905,6.041,0,2.575.566,5.091,1.218,7.727.109.308.214.623.321.94.668,1.999,1.425,4.265,3.441,5.749,2.391,1.94,5.899,1.933,9.014,1.917l.667-.002c2.464,0,4.914-.08,7.282-.159,2.355-.077,4.791-.158,7.229-.158,3.857,0,7.902.149,11.378,1.246,3.021.817,2.848,2.484,2.789,3.055-.096,1.342-.349,2.677-.594,3.968-.237,1.249-.482,2.54-.582,3.879,0,2.279,0,5.399,1.928,7.308.659.803,1.33,1.017,1.845,1.017.286,0,.525-.066.686-.133.984-.264,1.28-1.223,1.518-2.011.278-1.478-.055-2.961-.379-4.395-.171-.762-.333-1.482-.412-2.262-.527-2.439-.24-4.732.383-7.594l.11-.38c.763-2.636,1.482-5.126,1.283-7.89-.264-1.808-.936-3.525-1.586-5.185-.368-.938-.715-1.824-1.001-2.753-.86-2.376-.984-5.022-.371-7.845.165-.666.393-1.356.634-2.088.618-1.875,1.257-3.813.938-5.745-.609-2.466-2.984-3.982-4.89-5.201l-1.407-.925c-2.059-1.363-4.188-2.773-5.101-4.614-.248-.669-.221-1.339.07-1.793.272-.423.759-.663,1.479-.717,2.5-.289,5.191,1.441,6.941,2.576.285.198.616.447.974.715,1.874,1.404,3.359,2.473,4.57,2.442h.001c1.204-.039,2.944-1.222,4.929-2.647.261-.188.503-.362.695-.496,1.77-1.148,4.439-2.888,6.994-2.586.689.051,1.175.291,1.448.712.292.454.32,1.125.104,1.723-.947,1.913-3.077,3.323-5.138,4.688l-1.407.925c-1.905,1.218-4.277,2.735-4.901,5.255-.309,1.869.328,3.802.943,5.672.244.737.472,1.433.633,2.084.62,2.84.498,5.487-.374,7.898-.274.888-.619,1.767-.984,2.698-.654,1.667-1.33,3.391-1.597,5.26-.195,2.718.53,5.215,1.295,7.86l.091.308c.638,2.907.925,5.199.38,7.727-.066.697-.229,1.419-.401,2.184-.321,1.431-.654,2.911-.355,4.48.218.698.517,1.655,1.414,1.889.536.216,1.594.397,2.559-.799,1.984-1.964,1.984-5.085,1.982-7.421-.098-1.28-.343-2.568-.579-3.814-.245-1.294-.498-2.631-.596-4-.056-.548-.229-2.216,2.815-3.04,3.446-1.088,7.492-1.237,11.35-1.237,2.439,0,4.874.08,7.229.158,2.368.079,4.818.159,7.282.159l.668.002c3.114.02,6.618.024,8.986-1.896,2.047-1.508,2.805-3.779,3.473-5.782.105-.313.209-.625.336-.998.632-2.563,1.199-5.078,1.199-7.657,0-1.823-.298-3.803-.909-6.04Z" fill="#e60078"/>
  </g>
</svg>